<?xml version="1.0" encoding="UTF-8" standalone="no"?>
<svg
   xmlns:osb="http://www.openswatchbook.org/uri/2009/osb"
   xmlns:dc="http://purl.org/dc/elements/1.1/"
   xmlns:cc="http://creativecommons.org/ns#"
   xmlns:rdf="http://www.w3.org/1999/02/22-rdf-syntax-ns#"
   xmlns:svg="http://www.w3.org/2000/svg"
   xmlns="http://www.w3.org/2000/svg"
   xmlns:xlink="http://www.w3.org/1999/xlink"
   xmlns:sodipodi="http://sodipodi.sourceforge.net/DTD/sodipodi-0.dtd"
   xmlns:inkscape="http://www.inkscape.org/namespaces/inkscape"
   sodipodi:docname="redoracle.svg"
   inkscape:version="1.0 (4035a4fb49, 2020-05-01)"
   id="svg8"
   version="1.1"
   viewBox="0 0 200 199.99999"
   height="20cm"
   width="20cm">
  <defs
     id="defs2">
    <linearGradient
       osb:paint="solid"
       id="linearGradient2951">
      <stop
         id="stop2949"
         offset="0"
         style="stop-color:#000000;stop-opacity:1;" />
    </linearGradient>
    <linearGradient
       id="linearGradient985"
       inkscape:collect="always">
      <stop
         id="stop981"
         offset="0"
         style="stop-color:#ff2a2a;stop-opacity:1" />
      <stop
         id="stop983"
         offset="1"
         style="stop-color:#ffd5d5;stop-opacity:1" />
    </linearGradient>
    <linearGradient
       inkscape:collect="always"
       id="linearGradient971">
      <stop
         style="stop-color:#ff2a2a;stop-opacity:1"
         offset="0"
         id="stop967" />
      <stop
         style="stop-color:#ffd5d5;stop-opacity:1"
         offset="1"
         id="stop969" />
    </linearGradient>
    <inkscape:path-effect
       end_linecap_type="zerowidth"
       scale_width="1"
       miter_limit="4"
       linejoin_type="extrp_arc"
       start_linecap_type="zerowidth"
       interpolator_beta="0.2"
       interpolator_type="CubicBezierJohan"
       sort_points="true"
       offset_points="0,22.8838"
       lpeversion="1"
       is_visible="true"
       id="path-effect857"
       effect="powerstroke" />
    <linearGradient
       gradientUnits="userSpaceOnUse"
       y2="371.19824"
       x2="1595.2701"
       y1="371.19824"
       x1="461.41141"
       id="linearGradient957"
       xlink:href="#linearGradient971"
       inkscape:collect="always"
       gradientTransform="matrix(0.1647143,0,0,0.1647143,-68.765093,38.679537)" />
    <linearGradient
       gradientUnits="userSpaceOnUse"
       y2="513.50391"
       x2="604.83203"
       y1="513.50391"
       x1="1451.8496"
       id="linearGradient987"
       xlink:href="#linearGradient985"
       inkscape:collect="always"
       gradientTransform="matrix(0.1647143,0,0,0.1647143,-68.765093,38.679537)" />
  </defs>
  <sodipodi:namedview
     inkscape:window-maximized="1"
     inkscape:window-y="-11"
     inkscape:window-x="-11"
     inkscape:window-height="1046"
     inkscape:window-width="1920"
     inkscape:snap-center="true"
     inkscape:snap-object-midpoints="true"
     inkscape:snap-midpoints="true"
     inkscape:snap-smooth-nodes="true"
     inkscape:snap-intersection-paths="true"
     inkscape:object-paths="true"
     inkscape:snap-bbox-midpoints="true"
     inkscape:snap-bbox-edge-midpoints="true"
     inkscape:bbox-paths="true"
     inkscape:bbox-nodes="true"
     showborder="true"
     units="mm"
     inkscape:snap-bbox="true"
     showgrid="false"
     inkscape:document-rotation="0"
     inkscape:current-layer="layer1"
     inkscape:document-units="px"
     inkscape:cy="500.44287"
     inkscape:cx="250.50603"
     inkscape:zoom="0.58624129"
     inkscape:pageshadow="2"
     inkscape:pageopacity="0.0"
     borderopacity="1.0"
     bordercolor="#666666"
     pagecolor="#ffffff"
     id="base"
     borderlayer="false" />
  <metadata
     id="metadata5">
    <rdf:RDF>
      <cc:Work
         rdf:about="">
        <dc:format>image/svg+xml</dc:format>
        <dc:type
           rdf:resource="http://purl.org/dc/dcmitype/StillImage" />
        <dc:title />
      </cc:Work>
    </rdf:RDF>
  </metadata>
  <g
     id="layer1"
     inkscape:groupmode="layer"
     inkscape:label="Layer 1">
    <path
       d="M 100.50554,6.6233037 A 93.197844,93.197844 0 0 0 7.4194413,99.82104 93.197844,93.197844 0 0 0 100.61717,193.01909 93.197844,93.197844 0 0 0 193.81522,99.82104 93.197844,93.197844 0 0 0 100.61717,6.6233037 a 93.197844,93.197844 0 0 0 -0.11163,0 z M 100.61717,53.38801 A 46.4331,46.4331 0 0 1 147.05053,99.82104 46.4331,46.4331 0 0 1 100.61717,146.25406 46.4331,46.4331 0 0 1 54.184147,99.82104 46.4331,46.4331 0 0 1 100.61717,53.38801 Z"
       style="opacity:1;fill:url(#linearGradient957);fill-opacity:1;stroke:none;stroke-width:0.366978;stroke-miterlimit:4;stroke-dasharray:none;stroke-opacity:1"
       id="path882" />
    <path
       d="M 94.986006,53.73095 A 69.757912,69.757912 0 0 0 30.85938,123.26098 69.757912,69.757912 0 0 0 100.61717,193.01909 69.757912,69.757912 0 0 0 170.3753,123.26098 69.757912,69.757912 0 0 0 106.25447,53.73159 46.4331,46.4331 0 0 1 147.05053,99.82104 46.4331,46.4331 0 0 1 100.61717,146.25406 46.4331,46.4331 0 0 1 54.184147,99.82104 46.4331,46.4331 0 0 1 94.986006,53.73095 Z"
       style="opacity:1;fill:url(#linearGradient987);fill-opacity:1;stroke:none;stroke-width:0.536738;stroke-miterlimit:4;stroke-dasharray:none;stroke-opacity:1"
       id="path890" />
  </g>
</svg>
