<?xml version="1.0" encoding="UTF-8" standalone="no"?><!-- Generator: Gravit.io --><svg xmlns="http://www.w3.org/2000/svg" xmlns:xlink="http://www.w3.org/1999/xlink" style="isolation:isolate" viewBox="0 0 1000 1000" width="1000pt" height="1000pt"><defs><clipPath id="_clipPath_bPt82saXjaB5SOZBssz2gsp0cKgjrgLn"><rect width="1000" height="1000"/></clipPath></defs><g clip-path="url(#_clipPath_bPt82saXjaB5SOZBssz2gsp0cKgjrgLn)"><path d=" M 500 14 L 370.4 696.152 L 500 696.152 L 629.6 696.152 L 500 14 Z " fill-rule="evenodd" fill="rgb(250,169,43)"/><path d=" M 500 986 L 370.4 696.152 L 500 696.152 L 629.6 696.152 L 500 986 Z " fill-rule="evenodd" fill="rgb(250,72,0)"/><path d=" M 400.083 215.695 L 255.301 696.152 L 132.951 696.152 L 400.083 215.695 Z " fill="rgb(250,72,0)" vector-effect="non-scaling-stroke" stroke-width="1" stroke="rgb(250,72,0)" stroke-linejoin="miter" stroke-linecap="square" stroke-miterlimit="3"/><path d=" M 599.933 216.783 L 744.699 696.152 L 867.049 696.152 L 599.933 216.783 Z " fill="rgb(250,72,0)" vector-effect="non-scaling-stroke" stroke-width="1" stroke="rgb(250,72,0)" stroke-linejoin="miter" stroke-linecap="square" stroke-miterlimit="3"/><path d=" M 255.301 696.152 L 377.65 929.7 L 132.951 696.152 L 255.301 696.152 Z " fill="rgb(250,169,43)" vector-effect="non-scaling-stroke" stroke-width="1" stroke="rgb(250,169,43)" stroke-linejoin="miter" stroke-linecap="square" stroke-miterlimit="3"/><path d=" M 744.699 696.152 L 622.35 929.7 L 867.049 696.152 L 744.699 696.152 Z " fill="rgb(250,169,43)" vector-effect="non-scaling-stroke" stroke-width="1" stroke="rgb(250,169,43)" stroke-linejoin="miter" stroke-linecap="square" stroke-miterlimit="3"/><linearGradient id="_lgradient_4" x1="-0.22795698924731161" y1="0.5434618291761149" x2="1.1397849462365597" y2="0.6341647770219199" gradientTransform="matrix(144.782,0,0,480.456,255.301,215.695)" gradientUnits="userSpaceOnUse"><stop offset="0%" stop-opacity="1" style="stop-color:rgb(255,80,10)"/><stop offset="99.99999999999997%" stop-opacity="1" style="stop-color:rgb(209,60,1)"/><stop offset="100%" stop-opacity="1" style="stop-color:rgb(247,138,95)"/></linearGradient><path d=" M 400.083 215.695 L 296.99 686.81 L 255.301 696.152 L 400.083 215.695 Z " fill="url(#_lgradient_4)" vector-effect="non-scaling-stroke" stroke-width="1" stroke="rgb(250,72,0)" stroke-linejoin="miter" stroke-linecap="square" stroke-miterlimit="3"/><linearGradient id="_lgradient_5" x1="0" y1="0.5" x2="1" y2="0.5" gradientTransform="matrix(-144.766,0,0,479.406,744.699,216.745)" gradientUnits="userSpaceOnUse"><stop offset="0%" stop-opacity="1" style="stop-color:rgb(250,72,0)"/><stop offset="100%" stop-opacity="1" style="stop-color:rgb(210,60,0)"/></linearGradient><path d=" M 599.933 216.745 L 703.01 686.81 L 744.699 696.152 L 599.933 216.745 Z " fill="url(#_lgradient_5)" vector-effect="non-scaling-stroke" stroke-width="1" stroke="rgb(250,72,0)" stroke-linejoin="miter" stroke-linecap="square" stroke-miterlimit="3"/><linearGradient id="_lgradient_6" x1="0" y1="0.5" x2="1" y2="0.5" gradientTransform="matrix(122.35,0,0,242.891,255.301,686.81)" gradientUnits="userSpaceOnUse"><stop offset="0%" stop-opacity="1" style="stop-color:rgb(250,169,43)"/><stop offset="100%" stop-opacity="1" style="stop-color:rgb(219,135,0)"/></linearGradient><path d=" M 296.99 686.81 L 255.301 696.152 L 377.65 929.7 L 296.99 686.81 Z " fill="url(#_lgradient_6)" vector-effect="non-scaling-stroke" stroke-width="1" stroke="rgb(250,169,43)" stroke-linejoin="miter" stroke-linecap="square" stroke-miterlimit="3"/><linearGradient id="_lgradient_7" x1="0" y1="0.5" x2="1" y2="0.5" gradientTransform="matrix(-122.35,0,0,242.891,744.699,686.81)" gradientUnits="userSpaceOnUse"><stop offset="0%" stop-opacity="1" style="stop-color:rgb(250,169,43)"/><stop offset="100%" stop-opacity="1" style="stop-color:rgb(200,123,0)"/></linearGradient><path d=" M 703.01 686.81 L 744.699 696.152 L 622.35 929.7 L 703.01 686.81 Z " fill="url(#_lgradient_7)" vector-effect="non-scaling-stroke" stroke-width="1" stroke="rgb(250,169,43)" stroke-linejoin="miter" stroke-linecap="square" stroke-miterlimit="3"/></g></svg>