<?xml version="1.0" encoding="utf-8"?>
<svg id="master-artboard" viewBox="0 0 831.1876220703125 877.7415771484375" version="1.1" xmlns="http://www.w3.org/2000/svg" x="0px" y="0px" style="enable-background:new 0 0 1400 980;" width="831.1876220703125px" height="877.7415771484375px"><defs><style id="ee-google-fonts">@import url(https://fonts.googleapis.com/css?family=Aclonica:400);</style><path id="text-path-0" d="M 510.76177978515625 924.77783203125 A 100 -12 0 0 0 854.9093017578125 924.77783203125 A 100 -12 0 0 0 510.76177978515625 924.77783203125" style="fill: none; stroke: red; stroke-width: 2;"/></defs><rect id="ee-background" x="0" y="0" width="831.1876220703125" height="877.7415771484375" style="fill: white; fill-opacity: 0; pointer-events: none;"/><g transform="matrix(7.343055725097656, 0, 0, 7.343055725097656, -1304.1019287109375, -1380.9743843078613)"><g id="g-1" transform="matrix(1, 0, 0, 1, 0, 0)">
	<g id="g-2">
		<path class="st0" d="M282.5,236.3c2.1,2.1,2.1,5.4,0,7.5c0,0,0,0,0,0l-44.7,44.7c-2.1,2.1-5.4,2.1-7.5,0l-44.7-44.7&#10;&#9;&#9;&#9;c-2.1-2.1-2.1-5.4,0-7.5c0,0,0,0,0,0l44.7-44.7c2.1-2.1,5.4-2.1,7.5,0c0,0,0,0,0,0L282.5,236.3z" style="fill: rgb(51, 51, 51);"/>
	</g>
</g></g><g transform="matrix(4.921911239624023, 0, 0, 4.921911239624023, -93.29322814941406, -1631.8147163391113)"><g id="Layer_2_18_" transform="matrix(1, 0, 0, 1, 0, 0)">
	<g id="Layer_1-2_18_">
		<path class="st0" d="M103,336.5L53,424h100L103,336.5" style="fill: rgb(4, 199, 173);"/>
	</g>
</g></g><path d="M 59.697078704833984 478.3906555175781 L 881.8609619140625 483.5095520019531 L 475.56427001953125 900.823974609375" style="fill: rgb(4, 199, 173); fill-opacity: 1; stroke: rgb(0, 0, 0); stroke-opacity: 1; stroke-width: 0; paint-order: fill;" transform="matrix(0.8466272950172424, 0, 0, 0.8466272950172424, 14.005584716796875, -27.001914978027344)"/><path d="M 682.1116333007812 68.92083740234375 L 684.9032592773438 779.8661499023438 L 1028.8311767578125 427.0244445800781 L 884.4634399414062 428.7604064941406 L 682.1116333007812 68.92083740234375 Z" style="fill: rgb(44, 199, 194); fill-opacity: 1; stroke: rgb(0, 0, 0); stroke-opacity: 0; stroke-width: 0; paint-order: fill;" transform="matrix(1, 0, 0, 1, -268.4283447265625, -44.73805618286133)"/><path d="M 573.26513671875 940.9330444335938 L 550.03271484375 937.97509765625 L 527.3438720703125 841.4364013671875 L 553.2546997070312 844.7353515625 L 569.3450927734375 922.1575927734375 L 601.8920288085938 850.9278564453125 L 617.6349487304688 852.9322509765625 L 573.26513671875 940.9330444335938 ZM 685.0056762695312 889.8796997070312 L 675.4920043945312 893.37451171875 C 674.1083984375 888.603759765625 671.6866455078125 884.906494140625 668.226806640625 882.2826538085938 C 664.76708984375 879.6522216796875 660.564697265625 878.2728881835938 655.6196899414062 878.1448364257812 C 652.9539184570312 878.0757446289062 650.5671997070312 878.43408203125 648.45947265625 879.2197875976562 C 646.3517456054688 880.0054321289062 644.4959106445312 881.1077880859375 642.8919677734375 882.5267333984375 C 641.2811889648438 883.9521484375 639.904296875 885.6170654296875 638.76123046875 887.5214233398438 C 637.611572265625 889.4255981445312 636.6651000976562 891.4651489257812 635.921875 893.6399536132812 C 635.1786499023438 895.8147583007812 634.6266479492188 898.0712280273438 634.2659912109375 900.4093627929688 C 633.905517578125 902.7407836914062 633.6968994140625 905.0028076171875 633.6400756835938 907.1954345703125 C 633.5787963867188 909.561279296875 633.6436157226562 911.950439453125 633.8345336914062 914.3628540039062 C 634.031982421875 916.7821044921875 634.4152221679688 919.1061401367188 634.984375 921.3349609375 C 635.546875 923.5635986328125 636.31982421875 925.6476440429688 637.3032836914062 927.5870971679688 C 638.2866821289062 929.5265502929688 639.5430908203125 931.226318359375 641.072509765625 932.6864013671875 C 642.6085205078125 934.1466674804688 644.4489135742188 935.314697265625 646.5936279296875 936.1905517578125 C 648.7451171875 937.0598754882812 651.2404174804688 937.5313110351562 654.0794677734375 937.6048583984375 C 656.3587036132812 937.6639404296875 658.5402221679688 937.376953125 660.6239624023438 936.7440795898438 C 662.7010498046875 936.1109619140625 664.615478515625 935.1935424804688 666.3671875 933.9918212890625 C 668.118896484375 932.7901611328125 669.6834106445312 931.3468627929688 671.0608520507812 929.6619262695312 C 672.4382934570312 927.97705078125 673.5408935546875 926.0883178710938 674.3687133789062 923.9956665039062 L 683.76513671875 927.7302856445312 C 682.2577514648438 931.085693359375 680.299072265625 933.9692993164062 677.88916015625 936.3809814453125 C 675.4859008789062 938.7929077148438 672.7805786132812 940.766845703125 669.7730712890625 942.3028564453125 C 666.7589721679688 943.838623046875 663.5458374023438 944.9491577148438 660.1336059570312 945.6343383789062 C 656.7147216796875 946.3193969726562 653.265869140625 946.6168212890625 649.7870483398438 946.5267333984375 C 644.14892578125 946.3806762695312 638.9487915039062 945.2890014648438 634.1865844726562 943.2516479492188 C 629.4177856445312 941.2141723632812 625.3287353515625 938.420654296875 621.9194946289062 934.8712158203125 C 618.5036010742188 931.321533203125 615.8675537109375 927.1452026367188 614.0112915039062 922.3422241210938 C 612.155029296875 917.5391845703125 611.3004150390625 912.2986450195312 611.447509765625 906.6205444335938 C 611.5956420898438 900.9024658203125 612.711181640625 895.6829223632812 614.7941284179688 890.9619750976562 C 616.8704223632812 886.2407836914062 619.69580078125 882.2059326171875 623.2703857421875 878.8573608398438 C 626.844970703125 875.5088500976562 631.0626220703125 872.9505004882812 635.9234008789062 871.1824340820312 C 640.790771484375 869.41455078125 646.0835571289062 868.6046752929688 651.8016357421875 868.7528076171875 C 655.4137573242188 868.8463745117188 658.9288940429688 869.3375854492188 662.3469848632812 870.2263793945312 C 665.7653198242188 871.1085205078125 668.9259033203125 872.4141235351562 671.8287353515625 874.1431884765625 C 674.7247924804688 875.8787841796875 677.3129272460938 878.043212890625 679.5932006835938 880.6364135742188 C 681.8733520507812 883.236328125 683.677490234375 886.3174438476562 685.0056762695312 889.8796997070312 ZM 776.0641479492188 942.7728881835938 L 754.2825317382812 943.6679077148438 L 753.9171142578125 934.7754516601562 C 751.4840698242188 938.405029296875 748.4873657226562 941.1437377929688 744.9268798828125 942.991455078125 C 741.3660888671875 944.8325805664062 737.4142456054688 945.8423461914062 733.0712280273438 946.020751953125 C 727.3960571289062 946.2539672851562 722.2821655273438 945.4532470703125 717.7296752929688 943.6185913085938 C 713.183837890625 941.78369140625 709.290283203125 939.1780395507812 706.0488891601562 935.8015747070312 C 702.814208984375 932.4248657226562 700.280517578125 928.4088745117188 698.4478149414062 923.7534790039062 C 696.6215209960938 919.0912475585938 695.59716796875 914.0523681640625 695.3746337890625 908.636962890625 C 695.152099609375 903.2214965820312 695.759765625 898.118896484375 697.1976928710938 893.3291625976562 C 698.6419677734375 888.5325317382812 700.8374633789062 884.31884765625 703.7842407226562 880.6881103515625 C 706.7379150390625 877.0637817382812 710.4046020507812 874.1474609375 714.7843017578125 871.9390869140625 C 719.1709594726562 869.7371826171875 724.2018432617188 868.5195922851562 729.8770751953125 868.286376953125 C 732.754638671875 868.1681518554688 735.510009765625 868.4852905273438 738.1431274414062 869.23779296875 C 740.7828979492188 869.9900512695312 743.2208251953125 871.1076049804688 745.4569091796875 872.59033203125 C 747.6860961914062 874.0667724609375 749.6754150390625 875.8765869140625 751.4248657226562 878.0198974609375 C 753.16796875 880.170166015625 754.5679931640625 882.5780639648438 755.625 885.2435913085938 L 764.6321411132812 868.6697998046875 L 773.0050659179688 868.3257446289062 L 776.0641479492188 942.7728881835938 M 752.6163330078125 906.2848510742188 C 752.5369262695312 904.3531494140625 752.3564453125 902.3154907226562 752.0748901367188 900.171875 C 751.7935791015625 898.0349731445312 751.3732299804688 895.9237670898438 750.8137817382812 893.8383178710938 C 750.2543334960938 891.7528686523438 749.5157470703125 889.7715454101562 748.597900390625 887.894287109375 C 747.6800537109375 886.01708984375 746.5377807617188 884.362548828125 745.1712036132812 882.9307861328125 C 743.7979736328125 881.4993286132812 742.1677856445312 880.3919677734375 740.2807006835938 879.6087646484375 C 738.4002685546875 878.8253173828125 736.2344360351562 878.4839477539062 733.7831420898438 878.5846557617188 C 731.3385620117188 878.6851196289062 729.2318725585938 879.2153930664062 727.463134765625 880.1754760742188 C 725.6941528320312 881.1289672851562 724.1939086914062 882.37158203125 722.96240234375 883.9034423828125 C 721.7378540039062 885.441650390625 720.7456665039062 887.1939086914062 719.9857177734375 889.1600952148438 C 719.22607421875 891.1329345703125 718.6530151367188 893.1815185546875 718.2666015625 895.3058471679688 C 717.880126953125 897.43017578125 717.634033203125 899.5587158203125 717.5281372070312 901.6915283203125 C 717.4223022460938 903.8243408203125 717.408203125 905.8366088867188 717.4859619140625 907.7283935546875 C 717.563720703125 909.6201171875 717.7433471679688 911.6377563476562 718.02490234375 913.7813110351562 C 718.3062133789062 915.9182739257812 718.7266235351562 918.0294189453125 719.2860107421875 920.1149291992188 C 719.845703125 922.20703125 720.5848999023438 924.20166015625 721.5036010742188 926.098876953125 C 722.4222412109375 927.99609375 723.5548706054688 929.6610107421875 724.9014892578125 931.0936279296875 C 726.2545166015625 932.519287109375 727.8516235351562 933.6346435546875 729.6929321289062 934.439697265625 C 731.5344848632812 935.25146484375 733.6775512695312 935.6071166992188 736.1221313476562 935.5066528320312 C 738.3602294921875 935.4146728515625 740.3295288085938 934.8700561523438 742.030029296875 933.8727416992188 C 743.7305297851562 932.8754272460938 745.2051391601562 931.5770874023438 746.453857421875 929.977783203125 C 747.7025756835938 928.3785400390625 748.7359008789062 926.5712280273438 749.5538940429688 924.5559692382812 C 750.3784790039062 922.5404052734375 751.0272827148438 920.4686889648438 751.5003662109375 918.3408203125 C 751.973388671875 916.2129516601562 752.2936401367188 914.101318359375 752.4610595703125 912.0060424804688 C 752.6351928710938 909.9104614257812 752.6869506835938 908.0033569335938 752.6163330078125 906.2848510742188 ZM 827.1435546875 936.104248046875 L 805.5477905273438 939.5564575195312 L 795.1500244140625 874.5122680664062 L 781.7698974609375 876.6511840820312 L 780.4060668945312 868.1195068359375 L 793.7861938476562 865.9805908203125 L 789.4578857421875 838.9044189453125 L 811.0537109375 835.4521484375 L 815.3820190429688 862.5283813476562 L 837.6788940429688 858.964111328125 L 839.0427856445312 867.4957885742188 L 816.745849609375 871.06005859375 L 827.1435546875 936.104248046875 Z" transform="matrix(1, 0, 0, 1, -270.7843933105469, -89.50270080566406)" style="fill: rgb(51, 51, 51); white-space: pre; color: rgb(51, 51, 51);"/></svg>